<svg xmlns="http://www.w3.org/2000/svg" width="1080" height="1080" viewBox="0 0 1080 1080"><rect width="1080" height="1080" fill="#f3f2f2"/><rect x="1" y="1" width="1078" height="1078" fill="none" stroke="#201e1d" stroke-width="2"/><text x="96" y="158" font-family="Archivo Black, Archivo, sans-serif" font-size="44" letter-spacing="2" fill="#201e1d">OUT OF CONTEXT</text><text x="92" y="342" font-family="Archivo Black, Archivo, sans-serif" font-size="116" letter-spacing="-3" fill="#201e1d">Demoja,</text><text x="92" y="458" font-family="Archivo Black, Archivo, sans-serif" font-size="116" letter-spacing="-3" fill="#201e1d">ei kalvoja.</text><text x="96" y="548" font-family="Archivo Black, Archivo, sans-serif" font-size="38" letter-spacing="0.5" fill="#ec3013">KE 16.9.2026 &#183; KLO 18:00</text><text x="96" y="598" font-family="Archivo Black, Archivo, sans-serif" font-size="32" letter-spacing="0.5" fill="#201e1d" opacity="0.72">HELSINGIN KESKUSTA &#183; ILMAINEN</text><rect x="313" y="672" width="58" height="58" fill="#ec3013"/><rect x="379" y="672" width="58" height="58" fill="#ec3013"/><rect x="445" y="672" width="58" height="58" fill="#ec3013"/><rect x="511" y="672" width="58" height="58" fill="#ec3013"/><rect x="577" y="672" width="58" height="58" fill="#ec3013"/><rect x="643" y="672" width="58" height="58" fill="#ec3013"/><rect x="709" y="672" width="58" height="58" fill="#ec3013"/><rect x="313" y="738" width="58" height="58" fill="#ec3013"/><rect x="326.3" y="745.5" width="12.8" height="12.8" fill="#f3f2f2"/><rect x="326.3" y="775.7" width="12.8" height="12.8" fill="#f3f2f2"/><rect x="344.9" y="760.6" width="12.8" height="12.8" fill="#f3f2f2"/><rect x="379" y="738" width="58" height="58" fill="#ec3013"/><rect x="392.3" y="745.5" width="12.8" height="12.8" fill="#f3f2f2"/><rect x="392.3" y="775.7" width="12.8" height="12.8" fill="#f3f2f2"/><rect x="410.9" y="775.7" width="12.8" height="12.8" fill="#f3f2f2"/><rect x="445" y="738" width="58" height="58" fill="#ec3013"/><rect x="458.3" y="760.6" width="12.8" height="12.8" fill="#f3f2f2"/><rect x="458.3" y="775.7" width="12.8" height="12.8" fill="#f3f2f2"/><rect x="476.9" y="745.5" width="12.8" height="12.8" fill="#f3f2f2"/><rect x="476.9" y="760.6" width="12.8" height="12.8" fill="#f3f2f2"/><rect x="511" y="738" width="58" height="58" fill="#ec3013"/><rect x="577" y="738" width="58" height="58" fill="#ec3013"/><rect x="643" y="738" width="58" height="58" fill="#ec3013"/><rect x="709" y="738" width="58" height="58" fill="#ec3013"/><rect x="313" y="804" width="58" height="58" fill="#ec3013"/><rect x="326.3" y="811.5" width="12.8" height="12.8" fill="#f3f2f2"/><rect x="326.3" y="841.7" width="12.8" height="12.8" fill="#f3f2f2"/><rect x="344.9" y="826.6" width="12.8" height="12.8" fill="#f3f2f2"/><rect x="379" y="804" width="58" height="58" fill="#ec3013"/><rect x="392.3" y="811.5" width="12.8" height="12.8" fill="#f3f2f2"/><rect x="392.3" y="826.6" width="12.8" height="12.8" fill="#f3f2f2"/><rect x="410.9" y="811.5" width="12.8" height="12.8" fill="#f3f2f2"/><rect x="445" y="804" width="58" height="58" fill="#ec3013"/><rect x="511" y="804" width="58" height="58" fill="#ec3013"/><rect x="577" y="804" width="58" height="58" fill="#ec3013"/><rect x="643" y="804" width="58" height="58" fill="#ec3013"/><rect x="709" y="804" width="58" height="58" fill="#ec3013"/><rect x="313" y="870" width="58" height="58" fill="#ec3013"/><rect x="326.3" y="877.5" width="12.8" height="12.8" fill="#f3f2f2"/><rect x="344.9" y="877.5" width="12.8" height="12.8" fill="#f3f2f2"/><rect x="379" y="870" width="58" height="58" fill="#ec3013"/><rect x="392.3" y="877.5" width="12.8" height="12.8" fill="#f3f2f2"/><rect x="392.3" y="907.7" width="12.8" height="12.8" fill="#f3f2f2"/><rect x="410.9" y="892.6" width="12.8" height="12.8" fill="#f3f2f2"/><rect x="445" y="870" width="58" height="58" fill="#ec3013"/><rect x="458.3" y="877.5" width="12.8" height="12.8" fill="#f3f2f2"/><rect x="458.3" y="907.7" width="12.8" height="12.8" fill="#f3f2f2"/><rect x="476.9" y="877.5" width="12.8" height="12.8" fill="#f3f2f2"/><rect x="476.9" y="892.6" width="12.8" height="12.8" fill="#f3f2f2"/><rect x="511" y="870" width="58" height="58" fill="#ec3013"/><rect x="524.3" y="892.6" width="12.8" height="12.8" fill="#f3f2f2"/><rect x="524.3" y="907.7" width="12.8" height="12.8" fill="#f3f2f2"/><rect x="542.9" y="877.5" width="12.8" height="12.8" fill="#f3f2f2"/><rect x="542.9" y="892.6" width="12.8" height="12.8" fill="#f3f2f2"/><rect x="577" y="870" width="58" height="58" fill="#ec3013"/><rect x="590.3" y="877.5" width="12.8" height="12.8" fill="#f3f2f2"/><rect x="608.9" y="892.6" width="12.8" height="12.8" fill="#f3f2f2"/><rect x="643" y="870" width="58" height="58" fill="#ec3013"/><rect x="656.3" y="877.5" width="12.8" height="12.8" fill="#f3f2f2"/><rect x="656.3" y="907.7" width="12.8" height="12.8" fill="#f3f2f2"/><rect x="674.9" y="877.5" width="12.8" height="12.8" fill="#f3f2f2"/><rect x="674.9" y="907.7" width="12.8" height="12.8" fill="#f3f2f2"/><rect x="709" y="870" width="58" height="58" fill="#ec3013"/><rect x="722.3" y="892.6" width="12.8" height="12.8" fill="#f3f2f2"/><rect x="722.3" y="907.7" width="12.8" height="12.8" fill="#f3f2f2"/><rect x="740.9" y="877.5" width="12.8" height="12.8" fill="#f3f2f2"/><rect x="740.9" y="892.6" width="12.8" height="12.8" fill="#f3f2f2"/><rect x="313" y="936" width="58" height="58" fill="#ec3013"/><rect x="379" y="936" width="58" height="58" fill="#ec3013"/><rect x="445" y="936" width="58" height="58" fill="#ec3013"/><rect x="511" y="936" width="58" height="58" fill="#ec3013"/><rect x="577" y="936" width="58" height="58" fill="#ec3013"/><rect x="643" y="936" width="58" height="58" fill="#ec3013"/><rect x="709" y="936" width="58" height="58" fill="#ec3013"/></svg>