<svg xmlns="http://www.w3.org/2000/svg" width="1080" height="1080" viewBox="0 0 1080 1080"><rect width="1080" height="1080" fill="#ec3013"/><text x="96" y="150" font-family="Archivo Black, Archivo, sans-serif" font-size="32" letter-spacing="5" fill="#f3f2f2">OUT OF CONTEXT</text><text x="92" y="330" font-family="Archivo Black, Archivo, sans-serif" font-size="118" letter-spacing="-3" fill="#f3f2f2">Demoja,</text><text x="92" y="450" font-family="Archivo Black, Archivo, sans-serif" font-size="118" letter-spacing="-3" fill="#f3f2f2">ei kalvoja.</text><text x="96" y="540" font-family="Archivo Black, Archivo, sans-serif" font-size="26" letter-spacing="1.5" fill="#f3f2f2" opacity="0.9">HELSINKI &#183; KE 16.9.2026 &#183; KLO 18:00 &#183; ILMAINEN</text><rect x="293" y="600" width="62" height="62" fill="#f3f2f2"/><rect x="365" y="600" width="62" height="62" fill="#f3f2f2"/><rect x="437" y="600" width="62" height="62" fill="#f3f2f2"/><rect x="509" y="600" width="62" height="62" fill="#f3f2f2"/><rect x="581" y="600" width="62" height="62" fill="#f3f2f2"/><rect x="653" y="600" width="62" height="62" fill="#f3f2f2"/><rect x="725" y="600" width="62" height="62" fill="#f3f2f2"/><rect x="293" y="672" width="62" height="62" fill="none" stroke="#f3f2f2" stroke-opacity="0.55" stroke-width="2.5"/><circle cx="314.1" cy="686.9" r="5.3" fill="#f3f2f2"/><circle cx="314.1" cy="719.1" r="5.3" fill="#f3f2f2"/><circle cx="333.9" cy="703.0" r="5.3" fill="#f3f2f2"/><rect x="365" y="672" width="62" height="62" fill="none" stroke="#f3f2f2" stroke-opacity="0.55" stroke-width="2.5"/><circle cx="386.1" cy="686.9" r="5.3" fill="#f3f2f2"/><circle cx="386.1" cy="719.1" r="5.3" fill="#f3f2f2"/><circle cx="405.9" cy="719.1" r="5.3" fill="#f3f2f2"/><rect x="437" y="672" width="62" height="62" fill="none" stroke="#f3f2f2" stroke-opacity="0.55" stroke-width="2.5"/><circle cx="458.1" cy="703.0" r="5.3" fill="#f3f2f2"/><circle cx="458.1" cy="719.1" r="5.3" fill="#f3f2f2"/><circle cx="477.9" cy="686.9" r="5.3" fill="#f3f2f2"/><circle cx="477.9" cy="703.0" r="5.3" fill="#f3f2f2"/><rect x="509" y="672" width="62" height="62" fill="none" stroke="#f3f2f2" stroke-opacity="0.55" stroke-width="2.5"/><rect x="581" y="672" width="62" height="62" fill="none" stroke="#f3f2f2" stroke-opacity="0.55" stroke-width="2.5"/><rect x="653" y="672" width="62" height="62" fill="none" stroke="#f3f2f2" stroke-opacity="0.55" stroke-width="2.5"/><rect x="725" y="672" width="62" height="62" fill="none" stroke="#f3f2f2" stroke-opacity="0.55" stroke-width="2.5"/><rect x="293" y="744" width="62" height="62" fill="none" stroke="#f3f2f2" stroke-opacity="0.55" stroke-width="2.5"/><circle cx="314.1" cy="758.9" r="5.3" fill="#f3f2f2"/><circle cx="314.1" cy="791.1" r="5.3" fill="#f3f2f2"/><circle cx="333.9" cy="775.0" r="5.3" fill="#f3f2f2"/><rect x="365" y="744" width="62" height="62" fill="none" stroke="#f3f2f2" stroke-opacity="0.55" stroke-width="2.5"/><circle cx="386.1" cy="758.9" r="5.3" fill="#f3f2f2"/><circle cx="386.1" cy="775.0" r="5.3" fill="#f3f2f2"/><circle cx="405.9" cy="758.9" r="5.3" fill="#f3f2f2"/><rect x="437" y="744" width="62" height="62" fill="none" stroke="#f3f2f2" stroke-opacity="0.55" stroke-width="2.5"/><rect x="509" y="744" width="62" height="62" fill="none" stroke="#f3f2f2" stroke-opacity="0.55" stroke-width="2.5"/><rect x="581" y="744" width="62" height="62" fill="none" stroke="#f3f2f2" stroke-opacity="0.55" stroke-width="2.5"/><rect x="653" y="744" width="62" height="62" fill="none" stroke="#f3f2f2" stroke-opacity="0.55" stroke-width="2.5"/><rect x="725" y="744" width="62" height="62" fill="none" stroke="#f3f2f2" stroke-opacity="0.55" stroke-width="2.5"/><rect x="293" y="816" width="62" height="62" fill="none" stroke="#f3f2f2" stroke-opacity="0.55" stroke-width="2.5"/><circle cx="314.1" cy="830.9" r="5.3" fill="#f3f2f2"/><circle cx="333.9" cy="830.9" r="5.3" fill="#f3f2f2"/><rect x="365" y="816" width="62" height="62" fill="none" stroke="#f3f2f2" stroke-opacity="0.55" stroke-width="2.5"/><circle cx="386.1" cy="830.9" r="5.3" fill="#f3f2f2"/><circle cx="386.1" cy="863.1" r="5.3" fill="#f3f2f2"/><circle cx="405.9" cy="847.0" r="5.3" fill="#f3f2f2"/><rect x="437" y="816" width="62" height="62" fill="none" stroke="#f3f2f2" stroke-opacity="0.55" stroke-width="2.5"/><circle cx="458.1" cy="830.9" r="5.3" fill="#f3f2f2"/><circle cx="458.1" cy="863.1" r="5.3" fill="#f3f2f2"/><circle cx="477.9" cy="830.9" r="5.3" fill="#f3f2f2"/><circle cx="477.9" cy="847.0" r="5.3" fill="#f3f2f2"/><rect x="509" y="816" width="62" height="62" fill="none" stroke="#f3f2f2" stroke-opacity="0.55" stroke-width="2.5"/><circle cx="530.1" cy="847.0" r="5.3" fill="#f3f2f2"/><circle cx="530.1" cy="863.1" r="5.3" fill="#f3f2f2"/><circle cx="549.9" cy="830.9" r="5.3" fill="#f3f2f2"/><circle cx="549.9" cy="847.0" r="5.3" fill="#f3f2f2"/><rect x="581" y="816" width="62" height="62" fill="none" stroke="#f3f2f2" stroke-opacity="0.55" stroke-width="2.5"/><circle cx="602.1" cy="830.9" r="5.3" fill="#f3f2f2"/><circle cx="621.9" cy="847.0" r="5.3" fill="#f3f2f2"/><rect x="653" y="816" width="62" height="62" fill="none" stroke="#f3f2f2" stroke-opacity="0.55" stroke-width="2.5"/><circle cx="674.1" cy="830.9" r="5.3" fill="#f3f2f2"/><circle cx="674.1" cy="863.1" r="5.3" fill="#f3f2f2"/><circle cx="693.9" cy="830.9" r="5.3" fill="#f3f2f2"/><circle cx="693.9" cy="863.1" r="5.3" fill="#f3f2f2"/><rect x="725" y="816" width="62" height="62" fill="none" stroke="#f3f2f2" stroke-opacity="0.55" stroke-width="2.5"/><circle cx="746.1" cy="847.0" r="5.3" fill="#f3f2f2"/><circle cx="746.1" cy="863.1" r="5.3" fill="#f3f2f2"/><circle cx="765.9" cy="830.9" r="5.3" fill="#f3f2f2"/><circle cx="765.9" cy="847.0" r="5.3" fill="#f3f2f2"/><rect x="293" y="888" width="62" height="62" fill="#f3f2f2"/><rect x="365" y="888" width="62" height="62" fill="#f3f2f2"/><rect x="437" y="888" width="62" height="62" fill="#f3f2f2"/><rect x="509" y="888" width="62" height="62" fill="#f3f2f2"/><rect x="581" y="888" width="62" height="62" fill="#f3f2f2"/><rect x="653" y="888" width="62" height="62" fill="#f3f2f2"/><rect x="725" y="888" width="62" height="62" fill="#f3f2f2"/><text x="540" y="1010" font-family="Archivo Black, Archivo, sans-serif" font-size="28" letter-spacing="1" fill="#f3f2f2" text-anchor="middle" opacity="0.92">out-of-context.dev</text></svg>