<svg xmlns="http://www.w3.org/2000/svg" width="1200" height="630" viewBox="0 0 1200 630">
<rect width="1200" height="630" fill="#f3f2f2"/>
<rect x="1" y="1" width="1198" height="628" fill="none" stroke="#201e1d" stroke-width="2"/>
<text x="72" y="132" font-family="Archivo Black, Archivo, sans-serif" font-size="56" letter-spacing="1" fill="#201e1d">OUT OF CONTEXT</text>
<text x="68" y="322" font-family="Archivo Black, Archivo, sans-serif" font-size="100" letter-spacing="-3" fill="#201e1d">Demoja,</text>
<text x="68" y="422" font-family="Archivo Black, Archivo, sans-serif" font-size="100" letter-spacing="-3" fill="#201e1d">ei kalvoja.</text>
<text x="72" y="512" font-family="Archivo Black, Archivo, sans-serif" font-size="34" letter-spacing="0.5" fill="#ec3013">KE 16.9.2026 &#183; KLO 18:00</text>
<text x="72" y="558" font-family="Archivo Black, Archivo, sans-serif" font-size="30" letter-spacing="0.5" fill="#201e1d" opacity="0.72">HELSINGIN KESKUSTA &#183; ILMAINEN</text>
<rect x="716" y="149" width="60" height="60" fill="#ec3013"/>
<rect x="784" y="149" width="60" height="60" fill="#ec3013"/>
<rect x="852" y="149" width="60" height="60" fill="#ec3013"/>
<rect x="920" y="149" width="60" height="60" fill="#ec3013"/>
<rect x="988" y="149" width="60" height="60" fill="#ec3013"/>
<rect x="1056" y="149" width="60" height="60" fill="#ec3013"/>
<rect x="1124" y="149" width="60" height="60" fill="#ec3013"/>
<rect x="716" y="217" width="60" height="60" fill="#ec3013"/>
<rect x="729.8" y="224.8" width="13.2" height="13.2" fill="#f3f2f2"/>
<rect x="729.8" y="256.0" width="13.2" height="13.2" fill="#f3f2f2"/>
<rect x="749.0" y="240.4" width="13.2" height="13.2" fill="#f3f2f2"/>
<rect x="784" y="217" width="60" height="60" fill="#ec3013"/>
<rect x="797.8" y="224.8" width="13.2" height="13.2" fill="#f3f2f2"/>
<rect x="797.8" y="256.0" width="13.2" height="13.2" fill="#f3f2f2"/>
<rect x="817.0" y="256.0" width="13.2" height="13.2" fill="#f3f2f2"/>
<rect x="852" y="217" width="60" height="60" fill="#ec3013"/>
<rect x="865.8" y="240.4" width="13.2" height="13.2" fill="#f3f2f2"/>
<rect x="865.8" y="256.0" width="13.2" height="13.2" fill="#f3f2f2"/>
<rect x="885.0" y="224.8" width="13.2" height="13.2" fill="#f3f2f2"/>
<rect x="885.0" y="240.4" width="13.2" height="13.2" fill="#f3f2f2"/>
<rect x="920" y="217" width="60" height="60" fill="#ec3013"/>
<rect x="988" y="217" width="60" height="60" fill="#ec3013"/>
<rect x="1056" y="217" width="60" height="60" fill="#ec3013"/>
<rect x="1124" y="217" width="60" height="60" fill="#ec3013"/>
<rect x="716" y="285" width="60" height="60" fill="#ec3013"/>
<rect x="729.8" y="292.8" width="13.2" height="13.2" fill="#f3f2f2"/>
<rect x="729.8" y="324.0" width="13.2" height="13.2" fill="#f3f2f2"/>
<rect x="749.0" y="308.4" width="13.2" height="13.2" fill="#f3f2f2"/>
<rect x="784" y="285" width="60" height="60" fill="#ec3013"/>
<rect x="797.8" y="292.8" width="13.2" height="13.2" fill="#f3f2f2"/>
<rect x="797.8" y="308.4" width="13.2" height="13.2" fill="#f3f2f2"/>
<rect x="817.0" y="292.8" width="13.2" height="13.2" fill="#f3f2f2"/>
<rect x="852" y="285" width="60" height="60" fill="#ec3013"/>
<rect x="920" y="285" width="60" height="60" fill="#ec3013"/>
<rect x="988" y="285" width="60" height="60" fill="#ec3013"/>
<rect x="1056" y="285" width="60" height="60" fill="#ec3013"/>
<rect x="1124" y="285" width="60" height="60" fill="#ec3013"/>
<rect x="716" y="353" width="60" height="60" fill="#ec3013"/>
<rect x="729.8" y="360.8" width="13.2" height="13.2" fill="#f3f2f2"/>
<rect x="749.0" y="360.8" width="13.2" height="13.2" fill="#f3f2f2"/>
<rect x="784" y="353" width="60" height="60" fill="#ec3013"/>
<rect x="797.8" y="360.8" width="13.2" height="13.2" fill="#f3f2f2"/>
<rect x="797.8" y="392.0" width="13.2" height="13.2" fill="#f3f2f2"/>
<rect x="817.0" y="376.4" width="13.2" height="13.2" fill="#f3f2f2"/>
<rect x="852" y="353" width="60" height="60" fill="#ec3013"/>
<rect x="865.8" y="360.8" width="13.2" height="13.2" fill="#f3f2f2"/>
<rect x="865.8" y="392.0" width="13.2" height="13.2" fill="#f3f2f2"/>
<rect x="885.0" y="360.8" width="13.2" height="13.2" fill="#f3f2f2"/>
<rect x="885.0" y="376.4" width="13.2" height="13.2" fill="#f3f2f2"/>
<rect x="920" y="353" width="60" height="60" fill="#ec3013"/>
<rect x="933.8" y="376.4" width="13.2" height="13.2" fill="#f3f2f2"/>
<rect x="933.8" y="392.0" width="13.2" height="13.2" fill="#f3f2f2"/>
<rect x="953.0" y="360.8" width="13.2" height="13.2" fill="#f3f2f2"/>
<rect x="953.0" y="376.4" width="13.2" height="13.2" fill="#f3f2f2"/>
<rect x="988" y="353" width="60" height="60" fill="#ec3013"/>
<rect x="1001.8" y="360.8" width="13.2" height="13.2" fill="#f3f2f2"/>
<rect x="1021.0" y="376.4" width="13.2" height="13.2" fill="#f3f2f2"/>
<rect x="1056" y="353" width="60" height="60" fill="#ec3013"/>
<rect x="1069.8" y="360.8" width="13.2" height="13.2" fill="#f3f2f2"/>
<rect x="1069.8" y="392.0" width="13.2" height="13.2" fill="#f3f2f2"/>
<rect x="1089.0" y="360.8" width="13.2" height="13.2" fill="#f3f2f2"/>
<rect x="1089.0" y="392.0" width="13.2" height="13.2" fill="#f3f2f2"/>
<rect x="1124" y="353" width="60" height="60" fill="#ec3013"/>
<rect x="1137.8" y="376.4" width="13.2" height="13.2" fill="#f3f2f2"/>
<rect x="1137.8" y="392.0" width="13.2" height="13.2" fill="#f3f2f2"/>
<rect x="1157.0" y="360.8" width="13.2" height="13.2" fill="#f3f2f2"/>
<rect x="1157.0" y="376.4" width="13.2" height="13.2" fill="#f3f2f2"/>
<rect x="716" y="421" width="60" height="60" fill="#ec3013"/>
<rect x="784" y="421" width="60" height="60" fill="#ec3013"/>
<rect x="852" y="421" width="60" height="60" fill="#ec3013"/>
<rect x="920" y="421" width="60" height="60" fill="#ec3013"/>
<rect x="988" y="421" width="60" height="60" fill="#ec3013"/>
<rect x="1056" y="421" width="60" height="60" fill="#ec3013"/>
<rect x="1124" y="421" width="60" height="60" fill="#ec3013"/>
</svg>